<svg width="70" height="70" viewBox="0 0 70 70" fill="none" xmlns="http://www.w3.org/2000/svg">
<rect x="1.5" y="1.5" width="67" height="67" stroke="#7F43FF" stroke-width="3"/>
<path d="M23.4985 43.8296L28.2837 27.5088H34.4702L27.0361 48.7515C26.8766 49.2186 26.6659 49.7199 26.4038 50.2554C26.1418 50.8022 25.7829 51.3206 25.3271 51.8105C24.8714 52.3005 24.2847 52.6992 23.5669 53.0068C22.8605 53.3145 21.9832 53.4683 20.9351 53.4683C20.3768 53.4683 19.9666 53.4398 19.7046 53.3828C19.4539 53.3372 19.0666 53.2518 18.5425 53.1265V49.0078C18.6906 49.0078 18.8159 49.0078 18.9185 49.0078C19.0324 49.0078 19.1577 49.0078 19.2944 49.0078C19.9097 49.0078 20.3996 48.9451 20.7642 48.8198C21.1401 48.6945 21.425 48.5122 21.6187 48.2729C21.8237 48.0337 21.9832 47.7432 22.0972 47.4014L23.4985 43.8296ZM22.2852 27.5088L25.9253 40.4458L26.5576 46.5469H22.6953L16.1157 27.5088H22.2852ZM46.3647 41.7617V19.75H52.1582V46H46.9629L46.3647 41.7617ZM35.0171 36.9766V36.6177C35.0171 35.2163 35.1709 33.9403 35.4785 32.7896C35.7861 31.6274 36.2419 30.6305 36.8457 29.7988C37.4495 28.9557 38.2015 28.3063 39.1016 27.8506C40.0016 27.3949 41.0384 27.167 42.2119 27.167C43.2601 27.167 44.1772 27.4119 44.9634 27.9019C45.7495 28.3804 46.4217 29.0526 46.98 29.9185C47.5382 30.7843 47.994 31.7983 48.3472 32.9604C48.7004 34.1112 48.9681 35.353 49.1504 36.686V37.1133C48.9681 38.3665 48.7004 39.5514 48.3472 40.668C47.994 41.7731 47.5382 42.7529 46.98 43.6074C46.4217 44.4619 45.7438 45.1341 44.9463 45.624C44.1602 46.1025 43.2373 46.3418 42.1777 46.3418C41.0042 46.3418 39.9674 46.1082 39.0674 45.6411C38.1787 45.174 37.4325 44.5189 36.8286 43.6758C36.2362 42.8327 35.7861 41.8415 35.4785 40.7021C35.1709 39.5628 35.0171 38.321 35.0171 36.9766ZM40.7764 36.6177V36.9766C40.7764 37.6715 40.8219 38.3153 40.9131 38.9077C41.0042 39.5002 41.158 40.0243 41.3745 40.48C41.6024 40.9243 41.8986 41.2718 42.2632 41.5225C42.6392 41.7731 43.1006 41.8984 43.6475 41.8984C44.388 41.8984 44.9976 41.7218 45.4761 41.3687C45.966 41.0155 46.3249 40.5142 46.5527 39.8647C46.792 39.2153 46.8945 38.452 46.8604 37.5747V36.2246C46.8831 35.4727 46.8319 34.8118 46.7065 34.2422C46.5812 33.6611 46.3818 33.1769 46.1084 32.7896C45.8464 32.4022 45.5103 32.1117 45.1001 31.918C44.7013 31.7129 44.2285 31.6104 43.6816 31.6104C43.1462 31.6104 42.6904 31.7357 42.3145 31.9863C41.9499 32.237 41.6536 32.5902 41.4258 33.0459C41.1979 33.4902 41.0327 34.02 40.9302 34.6353C40.8276 35.2391 40.7764 35.8999 40.7764 36.6177Z" fill="white"/>
</svg>
